<?xml version="1.0" encoding="utf-8"?>
<!-- Generator: Adobe Illustrator 25.4.1, SVG Export Plug-In . SVG Version: 6.00 Build 0)  -->
<svg version="1.1" id="Layer_1" xmlns="http://www.w3.org/2000/svg" xmlns:xlink="http://www.w3.org/1999/xlink" x="0px" y="0px"
	 viewBox="0 0 463.3 528.8" style="enable-background:new 0 0 463.3 528.8;" xml:space="preserve">
<style type="text/css">
	.st0{fill:#FFFFFF;}
</style>
<g>
	<path class="st0" d="M115.2,211.7V303l43.4-57.4h28l-39.1,50.9l42.8,66.7H161l-30.8-50.3l-15.1,16.2v34H89.2V211.7H115.2z"/>
	<path class="st0" d="M263.2,269.6h-26.6v60c0,11.1,5.6,16,14.4,16c3.4,0,6.8-0.7,10-1.9l2.3,16c-6.6,3.6-14,5.4-21.5,5.3
		c-22.2,0-31.3-13-31.3-36.6v-57.7l-14.1-3.7v-16.4l15.5-1.2l6.7-26.2h18.1v26.9h26.6V269.6z"/>
	<path class="st0" d="M349,245.6h25.7v117.7h-22.9l-1.2-11.1c-8.3,8.8-19.2,13.2-32.4,13.2c-23.9,0-37.3-17.1-37.3-44.4v-75.3h25.9
		V321c0,15.5,6.5,23.6,19.7,23.6c8.8,0.1,17.2-4,22.4-11.1V245.6z"/>
	<path class="st0" d="M0,0v528.8h463.3V0H0z M25.4,25.4h412.4v477.9H25.4V25.4z"/>
	<path class="st0" d="M69.6,432.9V478h-9.9v-30.2h-8.9v-6.7h3.8c5.1,0,6.4-1.3,7.3-8.1L69.6,432.9z"/>
	<path class="st0" d="M89.7,470.7c4.4,0,6.4-2.3,6.4-6.8v-5.2c-2.2,1.6-4.8,2.4-7.5,2.3c-7.8,0-12.8-4.2-12.8-13.5
		c0-9.5,5.4-15,15-15s14.5,6.3,14.5,14.2v16.6c0,9.4-5.8,15.3-15.1,15.3c-7.1,0-11.7-3.4-13.8-9.7l6.1-3.5
		C84,469.3,86.2,470.7,89.7,470.7z M96.2,450v-3.8c0-4-1.7-5.7-5.4-5.7s-5.5,2-5.5,6.6c0,4.9,1.8,6.3,5.2,6.3
		C93,453.5,96,452.7,96.2,450z"/>
	<path class="st0" d="M139,444.9c0,15.3-15.7,16.2-18.1,25.4h18.2v7.7h-28.6l-0.1-4.1c0.5-14.4,19.2-19.7,19.2-28.5
		c0-3-1.6-4.8-5.3-4.8c-3.3,0-5.9,2.4-6.9,6.8l-7.3-2.5c1.9-6.9,6.9-12.3,15.1-12.3C134.9,432.6,139,438.4,139,444.9z"/>
	<path class="st0" d="M172.4,444.9c0,15.3-15.7,16.2-18.1,25.4h18.2v7.7h-28.6l-0.1-4.1c0.5-14.4,19.2-19.7,19.2-28.5
		c0-3-1.6-4.8-5.3-4.8c-3.3,0-5.9,2.4-6.9,6.8l-7.3-2.5c1.9-6.9,6.9-12.3,15.1-12.3C168.3,432.6,172.4,438.4,172.4,444.9z"/>
</g>
</svg>
