<?xml version="1.0" encoding="utf-8"?>
<!-- Generator: Adobe Illustrator 25.4.1, SVG Export Plug-In . SVG Version: 6.00 Build 0)  -->
<svg version="1.1" id="Layer_1" xmlns="http://www.w3.org/2000/svg" xmlns:xlink="http://www.w3.org/1999/xlink" x="0px" y="0px"
	 viewBox="0 0 973.8 528.8" style="enable-background:new 0 0 973.8 528.8;" xml:space="preserve">
<style type="text/css">
	.st0{fill:#FFFFFF;}
</style>
<g>
	<polygon class="st0" points="115.2,329.2 130.2,312.9 161,363.2 190.3,363.2 147.4,296.5 186.5,245.6 158.5,245.6 115.2,303 
		115.2,211.7 89.2,211.7 89.2,363.2 115.2,363.2 	"/>
	<path class="st0" d="M210.3,328.4c0,23.6,9.1,36.6,31.3,36.6c7.5,0.1,14.9-1.7,21.5-5.3l-2.3-16c-3.2,1.2-6.6,1.8-10,1.9
		c-8.8,0-14.4-4.9-14.4-16v-60h26.6v-19.4h-26.6v-26.9h-18.1l-6.7,26.2l-15.5,1.2v16.4l14.1,3.7V328.4z"/>
	<path class="st0" d="M318.3,365.3c13.2,0,24.1-4.4,32.4-13.2l1.2,11.1h22.9V245.6H349v88c-5.3,7.1-13.6,11.2-22.4,11.1
		c-13.2,0-19.7-8.1-19.7-23.6v-75.5H281v75.3C281,348.1,294.4,365.3,318.3,365.3z"/>
	<polygon class="st0" points="538.1,198.6 543.6,192.7 555,211.1 565.7,211.1 550,186.6 564.3,168 554,168 538.2,189 538.2,155.6 
		528.6,155.6 528.6,211.1 538.1,211.1 	"/>
	<path class="st0" d="M588.2,186c-14.3,0-18.8,6.4-18.8,13.9c0,7,4.5,11.9,12.1,11.9c4.1,0.1,8.1-1.4,11.1-4.2
		c1.4,2.3,3.7,3.9,7.7,3.9c1.5,0,3-0.3,4.4-0.7v-5.4h-1.1c-2,0-3-1.1-3-3.2v-20.4c0-8.4-4.1-14.8-14.3-14.8c-7.5,0-12.4,4.1-15.4,10
		l5.7,3.3c2-3.9,4.9-5.9,8.3-5.9c4.2,0,6.3,2.2,6.3,7.5v4.1H588.2z M591.2,192.3v9.7c-1.8,2.2-4.5,3.4-7.3,3.3c-3.4,0-5.4-1.6-5.4-6
		c0-4.2,2.3-6.9,9.8-6.9H591.2z"/>
	<path class="st0" d="M623.7,211.8c4.5,0.2,8.8-1.6,11.9-4.8l0.4,4.1h8.4V168h-9.4l0,32.3c-1.9,2.6-5,4.1-8.2,4.1
		c-4.8,0-7.2-3-7.2-8.7V168H610v27.6C610,205.5,614.9,211.8,623.7,211.8z"/>
	<path class="st0" d="M663.7,179.2c1.9-2.7,5-4.2,8.2-4.2c4.7,0,7.2,2.9,7.2,8.7v27.3h9.4v-27.6c0-10.1-4.9-16.3-13.7-16.3
		c-4.5-0.2-8.8,1.6-11.8,4.9l-0.3-4.2h-8.5v43.1h9.5L663.7,179.2z"/>
	<path class="st0" d="M713.4,211.8c11.4,0,17.3-6.8,17.3-15.5v-13.4c0-8.9-5.9-15.7-17.3-15.7s-17.2,7-17.2,15.7v13.4
		C696.2,205,702,211.8,713.4,211.8z M705.7,183.2c0-5.6,2.3-8.8,7.7-8.8s7.8,3.2,7.8,8.8v12.6c0,5.6-2.4,8.8-7.8,8.8
		c-5.2,0-7.7-3.1-7.7-8.8V183.2z"/>
	<path class="st0" d="M530,273.4c0,8.7,3.3,13.4,11.5,13.4c2.7,0,5.5-0.6,7.9-1.9l-0.8-5.8c-1.2,0.4-2.4,0.7-3.6,0.7
		c-3.2,0-5.3-1.8-5.3-5.9v-22h9.8l0-7.2h-9.8v-9.8h-6.6l-2.5,9.6l-5.7,0.4v6l5.2,1.4V273.4z"/>
	<path class="st0" d="M587.9,275.9l-6.8-2.5c-1.8,4.6-4.2,6.3-8.3,6.3c-5.3,0-8.1-3.1-8.1-8.9v-5h23.2v-7.5c0-8.9-5.7-16-16.1-16
		c-10.9,0-16.5,7-16.5,15.6v13.3c0,9.1,5.9,15.8,16.7,15.8C580.4,286.9,585.4,283.3,587.9,275.9z M572,249.3c4.7,0,7.4,2.8,7.4,7.9
		v3h-14.8l-0.1-2.8C564.6,252.2,566.9,249.3,572,249.3z"/>
	<path class="st0" d="M619,273.7c-1.5,4.2-3.9,5.9-7.6,5.9c-4.9,0-7.7-2.8-7.7-8.7v-12.6c0-5.9,2.8-8.6,7.7-8.6
		c3.4,0,6.1,1.6,7.5,5.5l6.6-2.6c-2.5-6.6-8-10.4-15.1-10.4c-10.7,0-16.3,7-16.3,15.7v13.3c0,8.5,5.5,15.6,16.3,15.6
		c7.9,0,12.9-4,15.3-10.6L619,273.7z"/>
	<path class="st0" d="M642,230.6h-9.5v55.5h9.5l0-32c1.9-2.6,4.9-4.1,8.1-4.1c4.8,0,7.2,2.9,7.2,8.7v27.3h9.5v-27.6
		c0-10.1-4.7-16.3-13.6-16.3c-4.2-0.2-8.3,1.4-11.3,4.3V230.6z"/>
	<path class="st0" d="M710.3,258.5c0-10.1-4.8-16.3-13.7-16.3c-4.5-0.2-8.8,1.6-11.8,4.9l-0.3-4.2H676v43.1h9.5l0-31.9
		c1.9-2.7,5-4.2,8.2-4.2c4.7,0,7.2,2.9,7.2,8.7v27.3h9.4V258.5z"/>
	<path class="st0" d="M717.9,257.9v13.4c0,8.7,5.9,15.5,17.2,15.5s17.3-6.8,17.3-15.5v-13.4c0-8.9-5.9-15.7-17.3-15.7
		S717.9,249.2,717.9,257.9z M727.4,258.3c0-5.6,2.3-8.8,7.7-8.8s7.8,3.2,7.8,8.8v12.6c0,5.6-2.4,8.8-7.8,8.8c-5.2,0-7.7-3.1-7.7-8.8
		V258.3z"/>
	<rect x="761.6" y="230.6" class="st0" width="9.5" height="55.5"/>
	<path class="st0" d="M797.7,286.8c11.4,0,17.3-6.8,17.3-15.5v-13.4c0-8.9-5.8-15.7-17.3-15.7c-11.4,0-17.2,7-17.2,15.7v13.4
		C780.5,280.1,786.3,286.8,797.7,286.8z M789.9,258.3c0-5.6,2.3-8.8,7.7-8.8s7.8,3.2,7.8,8.8v12.6c0,5.6-2.4,8.8-7.8,8.8
		c-5.2,0-7.7-3.1-7.7-8.8V258.3z"/>
	<path class="st0" d="M821.6,272.6c0,2.8,1.6,5.4,4.2,6.7c-2,1.7-3.2,4.2-3.2,6.9c0,5.7,4.4,9.8,16.3,9.8s18.7-4.6,18.7-12.7
		c0-6.1-3.8-10-14.2-10h-9.8c-3.4,0-4.4-0.9-4.4-2.5c0-1.1,0.8-2,2.5-2.9c2.3,0.6,4.7,0.9,7.2,0.8c10.9,0,15.9-4.5,15.9-13
		c0-2.4-0.4-4.8-1.4-6.9c2.3-2,3.9-4.8,4.3-7.8l-4.3-1.9c-1,2.2-2.7,4-4.8,5.2c-3.1-1.3-6.4-1.9-9.7-1.8c-10.6,0-15.6,4.3-15.6,13.2
		c0,4.3,1.3,7.6,3.9,9.8C823.4,267.1,821.6,269.8,821.6,272.6z M832.5,280.7l10.4,0c5.1,0,6.4,1.1,6.4,3.8c0,2.7-1.4,5.3-10,5.3
		c-6,0-8.9-1.4-8.9-4.6C830.3,283.4,831.1,281.7,832.5,280.7z M838.9,249c5.1,0,6.9,1.6,6.9,6.7c0,5.1-1.5,6.6-6.9,6.6l0,0
		c-5.2,0-6.7-1.5-6.7-6.6C832.2,250.6,833.8,249,838.9,249z"/>
	<rect x="865.5" y="230.6" class="st0" width="8.3" height="8.3"/>
	<rect x="864.9" y="244.7" class="st0" width="9.5" height="41.4"/>
	<path class="st0" d="M895.3,278.5v-33.8h-9.5v33.9c0,6.5-2.4,9.3-7.5,9.9l0.8,7.3C889.8,295.2,895.3,289.6,895.3,278.5z"/>
	<rect x="886.3" y="230.6" class="st0" width="8.3" height="8.3"/>
	<path class="st0" d="M920.2,286.8c11.4,0,17.3-6.8,17.3-15.5v-13.4c0-8.9-5.8-15.7-17.3-15.7c-11.4,0-17.2,7-17.2,15.7v13.4
		C903,280.1,908.9,286.8,920.2,286.8z M912.5,258.3c0-5.6,2.3-8.8,7.7-8.8s7.8,3.2,7.8,8.8v12.6c0,5.6-2.4,8.8-7.8,8.8
		c-5.2,0-7.7-3.1-7.7-8.8V258.3z"/>
	<path class="st0" d="M958.8,280.1c-4,0-7.6-2.4-9.2-6l-5.8,3.2c3,6.6,8.1,9.5,15.3,9.5c8.7,0,14.8-5.5,14.8-13.1
		c0-14.5-20.4-11.9-20.4-19.9c0-2.9,1.9-4.8,6.1-4.8c3.5,0,6.5,1.3,8.2,5.3l5.8-2.8c-2.7-6.2-7.5-9.3-14.3-9.3
		c-9.6,0-14.8,5.5-14.8,12.4c0,14.3,20.4,11.5,20.4,20C964.8,278.1,962.8,280.1,958.8,280.1z"/>
	<path class="st0" d="M527.5,318v27.6c0,10,4.9,16.3,13.7,16.3c4.5,0.2,8.8-1.6,11.9-4.8l0.4,4.1h8.4V318h-9.4l0,32.2
		c-1.9,2.6-5,4.1-8.2,4.1c-4.8,0-7.2-3-7.2-8.7V318H527.5z"/>
	<path class="st0" d="M606.1,361.1v-27.6c0-10.1-4.8-16.3-13.7-16.3c-4.5-0.2-8.8,1.6-11.8,4.9l-0.3-4.2h-8.5v43.1h9.5l0-31.9
		c1.9-2.7,5-4.2,8.2-4.2c4.7,0,7.2,2.9,7.2,8.7v27.4H606.1z"/>
	<rect x="615.8" y="319.7" class="st0" width="9.5" height="41.4"/>
	<rect x="616.4" y="305.7" class="st0" width="8.3" height="8.3"/>
	<polygon class="st0" points="652.2,352.7 642.6,318 631.9,318 646.9,361.1 657.5,361.1 672.6,318 661.8,318 	"/>
	<path class="st0" d="M708.6,340.8v-7.5c0-8.9-5.7-16-16.1-16c-10.9,0-16.5,6.9-16.5,15.6v13.3c0,9.1,5.9,15.8,16.7,15.8
		c8.6,0,13.6-3.6,16-11l-6.8-2.5c-1.8,4.6-4.2,6.3-8.3,6.3c-5.4,0-8.1-3.1-8.1-8.9v-5H708.6z M685.4,332.4c0-5.1,2.3-8.1,7.4-8.1
		c4.7,0,7.4,2.8,7.4,7.9v3h-14.7L685.4,332.4z"/>
	<path class="st0" d="M725.2,325.1l-0.5-7.1h-8.2v43.1h9.5v-24c0.8-6.9,3.8-11.1,9.5-11.1c1.5-0.1,2.9,0.3,4.1,1.1l1-8.7
		c-1.5-0.7-3.2-1.1-4.8-1.1C731.3,317.3,727.8,319.5,725.2,325.1z"/>
	<path class="st0" d="M745.5,329.6c0,14.3,20.4,11.5,20.4,20c0,3.6-1.9,5.5-6,5.5c-4,0-7.6-2.4-9.2-6l-5.8,3.2
		c3,6.6,8.1,9.5,15.3,9.5c8.7,0,14.8-5.5,14.8-13.1c0-14.5-20.4-11.9-20.4-19.9c0-2.9,1.9-4.8,6.1-4.8c3.5,0,6.5,1.3,8.2,5.3
		l5.8-2.7c-2.7-6.2-7.5-9.3-14.3-9.3C750.7,317.3,745.5,322.8,745.5,329.6z"/>
	<rect x="783.5" y="305.7" class="st0" width="8.3" height="8.3"/>
	<rect x="782.9" y="319.7" class="st0" width="9.5" height="41.4"/>
	<path class="st0" d="M816.1,361.8c2.7,0,5.5-0.6,7.9-1.9l-0.8-5.8c-1.2,0.4-2.4,0.7-3.6,0.7c-3.2,0-5.3-1.8-5.3-5.8v-22h9.7v-7.2
		h-9.7v-9.8h-6.6l-2.5,9.6l-5.7,0.4v6l5.2,1.4v21.2C804.6,357,808,361.8,816.1,361.8z"/>
	<path class="st0" d="M829.8,332.9v13.3c0,9.1,5.9,15.8,16.7,15.8c8.6,0,13.6-3.6,16-11l-6.8-2.5c-1.8,4.6-4.2,6.3-8.3,6.3
		c-5.4,0-8.1-3.1-8.1-8.9v-5h23.2v-7.5c0-8.9-5.7-16-16.1-16C835.5,317.3,829.8,324.2,829.8,332.9z M854.1,332.2v3h-14.8v-2.8
		c0-5.1,2.3-8.1,7.4-8.1C851.4,324.3,854.1,327.1,854.1,332.2z"/>
	<path class="st0" d="M866.8,319.8v6l5.2,1.4v21.2c0,8.6,3.3,13.4,11.4,13.4c2.8,0,5.5-0.6,7.9-1.9l-0.8-5.8
		c-1.2,0.4-2.4,0.7-3.6,0.7c-3.3,0-5.3-1.8-5.3-5.8v-22h9.8l0-7.2h-9.8v-9.8H875l-2.5,9.6L866.8,319.8z"/>
	<path class="st0" d="M915.4,336.1c-14.3,0-18.8,6.4-18.8,13.9c0,7,4.5,11.9,12.1,11.9c4.1,0.1,8.1-1.3,11.1-4.1
		c1.4,2.3,3.7,3.9,7.7,3.9c1.5,0,3-0.3,4.4-0.7v-5.4h-1.1c-2,0-3.1-1.2-3.1-3.2v-20.3c0-8.3-4.1-14.8-14.3-14.8
		c-7.6,0-12.4,4.1-15.4,10l5.7,3.2c2-3.9,4.9-5.9,8.3-5.9c4.2,0,6.3,2.2,6.3,7.5v4.2H915.4z M918.4,342.4v9.7
		c-1.8,2.2-4.5,3.4-7.3,3.3c-3.4,0-5.4-1.6-5.4-6c0-4.2,2.3-7,9.8-7H918.4z"/>
	<path class="st0" d="M957.1,349.6c0,3.6-1.9,5.5-6,5.5c-4,0-7.6-2.4-9.2-6l-5.8,3.2c3,6.6,8.1,9.5,15.3,9.5
		c8.7,0,14.8-5.5,14.8-13.1c0-14.5-20.4-11.9-20.4-19.9c0-2.9,1.9-4.8,6.1-4.8c3.5,0,6.5,1.3,8.2,5.3l5.8-2.7
		c-2.7-6.2-7.5-9.3-14.3-9.3c-9.6,0-14.8,5.5-14.8,12.4C936.7,344,957.1,341.1,957.1,349.6z"/>
	<path class="st0" d="M973.8,389.7H463.3V0H0v528.8h463.3V402.4h510.6V389.7z M437.9,503.4H25.4V25.4h412.4v364.3H87.6v12.7h350.2
		V503.4z"/>
	<path class="st0" d="M54.5,441.1h-3.8v6.7h8.9V478h9.9v-45.1l-7.8,0C61,439.8,59.7,441.1,54.5,441.1z"/>
	<path class="st0" d="M75.9,447.5c0,9.3,5,13.5,12.8,13.5c2.7,0.1,5.3-0.7,7.5-2.3v5.2c0,4.5-2.1,6.8-6.4,6.8
		c-3.6,0-5.7-1.4-7.2-5.3l-6.1,3.5c2.1,6.3,6.8,9.7,13.8,9.7c9.4,0,15.1-5.9,15.1-15.3v-16.6c0-7.9-4.9-14.2-14.5-14.2
		S75.9,438,75.9,447.5z M90.7,440.6c3.7,0,5.4,1.7,5.4,5.7v3.8c-0.1,2.7-3.2,3.5-5.7,3.5c-3.4,0-5.2-1.4-5.2-6.3
		C85.3,442.6,87.1,440.6,90.7,440.6z"/>
	<path class="st0" d="M124.3,440.6c3.7,0,5.3,1.8,5.3,4.8c0,8.8-18.7,14-19.2,28.5l0.1,4.1h28.6v-7.7h-18.2
		c2.4-9.2,18.1-10.1,18.1-25.4c0-6.5-4.1-12.3-13.9-12.3c-8.2,0-13.2,5.4-15.1,12.3l7.3,2.5C118.4,443,121,440.6,124.3,440.6z"/>
	<path class="st0" d="M157.7,440.6c3.7,0,5.3,1.8,5.3,4.8c0,8.8-18.7,14-19.2,28.5l0.1,4.1h28.6v-7.7h-18.2
		c2.4-9.2,18.1-10.1,18.1-25.4c0-6.5-4.1-12.3-13.9-12.3c-8.2,0-13.2,5.4-15.1,12.3l7.3,2.5C151.8,443,154.4,440.6,157.7,440.6z"/>
</g>
</svg>
